<?xml version="1.0" encoding="UTF-8"?>
<!DOCTYPE svg PUBLIC "-//W3C//DTD SVG 1.1//EN" "http://www.w3.org/Graphics/SVG/1.1/DTD/svg11.dtd">
<!-- Creator: CorelDRAW -->
<svg xmlns="http://www.w3.org/2000/svg" xml:space="preserve" width="0.906031in" height="0.906031in" version="1.1" style="shape-rendering:geometricPrecision; text-rendering:geometricPrecision; image-rendering:optimizeQuality; fill-rule:evenodd; clip-rule:evenodd"
viewBox="0 0 27.44 27.44"
 xmlns:xlink="http://www.w3.org/1999/xlink"
 xmlns:xodm="http://www.corel.com/coreldraw/odm/2003">
 <defs>
  <style type="text/css">
   <![CDATA[
    .fil0 {fill:none}
    .fil2 {fill:#1CA372}
    .fil1 {fill:#A3D9C5}
   ]]>
  </style>
 </defs>
 <g id="Layer_x0020_1">
  <metadata id="CorelCorpID_0Corel-Layer"/>
  <rect class="fil0" width="27.44" height="27.44" rx="4.77" ry="4.77"/>
  <path class="fil1" d="M9.36 6.02l8.72 0c1.7,0 3.1,1.39 3.1,3.1l0 4.45c0,1.61 -1.24,2.94 -2.81,3.08l0 -1.38c0,-0.85 -0.7,-1.55 -1.55,-1.55l-6.2 0c-0.85,0 -1.55,0.7 -1.55,1.55l0 1.38c-1.57,-0.15 -2.81,-1.48 -2.81,-3.08l0 -4.45c0,-1.7 1.39,-3.1 3.1,-3.1z"/>
  <path class="fil2" d="M10.64 14.75l6.16 0c0.34,0 0.62,0.28 0.62,0.62l0 1.3 -7.4 0 0 -1.3c0,-0.34 0.28,-0.62 0.62,-0.62z"/>
  <path class="fil2" d="M16.25 8.87l1.58 0c0.26,0 0.47,0.21 0.47,0.47l0 0c0,0.26 -0.21,0.47 -0.47,0.47l-1.58 0c-0.26,0 -0.47,-0.21 -0.47,-0.47l0 -0c0,-0.26 0.21,-0.47 0.47,-0.47z"/>
  <path class="fil2" d="M13.65 17.37l0 0c0.26,0 0.46,0.21 0.46,0.46l0 2.11c0,0.26 -0.21,0.46 -0.46,0.46l0 0c-0.26,0 -0.46,-0.21 -0.46,-0.46l0 -2.11c0,-0.26 0.21,-0.46 0.46,-0.46z"/>
  <path class="fil2" d="M12.03 17.79c0.05,1.36 -0.78,2.57 -2.2,2.68 -0.26,0.02 -0.48,-0.17 -0.5,-0.43 -0.02,-0.26 0.17,-0.48 0.43,-0.5 0.92,-0.07 1.38,-0.86 1.35,-1.72 -0.01,-0.26 0.19,-0.47 0.45,-0.48 0.26,-0.01 0.47,0.19 0.48,0.45z"/>
  <path class="fil2" d="M15.36 17.79c-0.05,1.36 0.78,2.57 2.2,2.68 0.26,0.02 0.48,-0.17 0.5,-0.43 0.02,-0.26 -0.17,-0.48 -0.43,-0.5 -0.92,-0.07 -1.38,-0.86 -1.35,-1.72 0.01,-0.26 -0.19,-0.47 -0.45,-0.48 -0.26,-0.01 -0.47,0.19 -0.48,0.45z"/>
 </g>
</svg>
