<?xml version="1.0" encoding="UTF-8"?>
<!DOCTYPE svg PUBLIC "-//W3C//DTD SVG 1.1//EN" "http://www.w3.org/Graphics/SVG/1.1/DTD/svg11.dtd">
<!-- Creator: CorelDRAW -->
<svg xmlns="http://www.w3.org/2000/svg" xml:space="preserve" width="0.759843in" height="0.759843in" version="1.1" style="shape-rendering:geometricPrecision; text-rendering:geometricPrecision; image-rendering:optimizeQuality; fill-rule:evenodd; clip-rule:evenodd"
viewBox="0 0 9.63 9.63"
 xmlns:xlink="http://www.w3.org/1999/xlink"
 xmlns:xodm="http://www.corel.com/coreldraw/odm/2003">
 <defs>
  <style type="text/css">
   <![CDATA[
    .fil0 {fill:#CCCCCC}
    .fil1 {fill:#1CA372;fill-rule:nonzero}
   ]]>
  </style>
 </defs>
 <g id="Layer_x0020_1">
  <metadata id="CorelCorpID_0Corel-Layer"/>
  <path class="fil0" d="M5.44 0.22l0.83 0.66c0.09,0.07 0.18,0.11 0.29,0.12l1.06 0.12c0.47,0.05 0.83,0.41 0.88,0.88l0.12 1.06c0.01,0.11 0.05,0.2 0.12,0.29l0.66 0.83c0.29,0.37 0.29,0.88 0,1.25l-0.66 0.83c-0.07,0.09 -0.11,0.18 -0.12,0.29l-0.12 1.06c-0.05,0.47 -0.41,0.83 -0.88,0.88l-1.06 0.12c-0.11,0.01 -0.2,0.05 -0.29,0.12l-0.83 0.66c-0.37,0.29 -0.88,0.29 -1.25,0l-0.83 -0.66c-0.09,-0.07 -0.18,-0.11 -0.29,-0.12l-1.06 -0.12c-0.47,-0.05 -0.83,-0.41 -0.88,-0.88l-0.12 -1.06c-0.01,-0.11 -0.05,-0.2 -0.12,-0.29l-0.66 -0.83c-0.29,-0.37 -0.29,-0.88 0,-1.25l0.66 -0.83c0.07,-0.09 0.11,-0.18 0.12,-0.29l0.12 -1.06c0.05,-0.47 0.41,-0.83 0.88,-0.88l1.06 -0.12c0.11,-0.01 0.2,-0.05 0.29,-0.12l0.83 -0.66c0.37,-0.29 0.88,-0.29 1.25,0z"/>
  <path class="fil1" d="M7.09 6.39c0.11,0 0.2,-0.09 0.2,-0.2 0,-0.11 -0.09,-0.2 -0.2,-0.2 -0.12,0 -0.2,0.09 -0.2,0.2 0,0.11 0.08,0.2 0.2,0.2zm-3.21 -1.34l0.66 1.13c0.04,0.07 0.02,0.16 -0.05,0.2 -0.07,0.04 -0.16,0.02 -0.2,-0.05l-0.72 -1.22 -0.95 -0.01 0 1.16c0,0.08 -0.06,0.14 -0.14,0.14 -0.08,0 -0.14,-0.06 -0.14,-0.14l0 -1.3c0,-0 0,-0 0,-0l0 -1.61c0,-0.08 0.06,-0.14 0.14,-0.14l1.15 0c0.51,0 0.9,0.45 0.9,0.95 -0,0.31 -0.13,0.57 -0.37,0.75 -0.08,0.06 -0.18,0.12 -0.29,0.15zm-0.23 -0.24c0,-0 0,-0 0.01,-0 0.1,-0.01 0.26,-0.09 0.34,-0.15 0.17,-0.13 0.26,-0.31 0.26,-0.52 0,-0.33 -0.27,-0.66 -0.61,-0.66l-1.01 0 0 1.32 1.01 0.01c0,0 0,0 0.01,0zm2.5 -0.25c-0.11,-0.18 -0.3,-0.24 -0.51,-0.24 -0.17,-0 -0.35,0.06 -0.45,0.21 -0.07,0.1 -0.08,0.23 -0.01,0.32 0.18,0.24 0.75,0.21 1.07,0.44 0.23,0.16 0.31,0.45 0.2,0.7 -0.13,0.31 -0.46,0.44 -0.77,0.44 -0.32,0 -0.73,-0.13 -0.86,-0.45 -0.03,-0.07 0,-0.16 0.07,-0.19 0.07,-0.03 0.16,0 0.19,0.07 0.09,0.2 0.4,0.28 0.6,0.27 0.19,-0 0.43,-0.07 0.51,-0.26 0.05,-0.13 0.02,-0.27 -0.1,-0.36 -0.34,-0.24 -0.84,-0.12 -1.13,-0.5 -0.15,-0.2 -0.14,-0.46 -0,-0.66 0.15,-0.23 0.42,-0.34 0.69,-0.34 0.31,0 0.59,0.11 0.75,0.38 0.04,0.07 0.02,0.16 -0.05,0.2 -0.07,0.04 -0.16,0.02 -0.2,-0.05z"/>
 </g>
</svg>
