<?xml version="1.0" encoding="UTF-8"?>
<!DOCTYPE svg PUBLIC "-//W3C//DTD SVG 1.1//EN" "http://www.w3.org/Graphics/SVG/1.1/DTD/svg11.dtd">
<!-- Creator: CorelDRAW -->
<svg xmlns="http://www.w3.org/2000/svg" xml:space="preserve" width="0.927972in" height="0.757059in" version="1.1" style="shape-rendering:geometricPrecision; text-rendering:geometricPrecision; image-rendering:optimizeQuality; fill-rule:evenodd; clip-rule:evenodd"
viewBox="0 0 13.33 10.87"
 xmlns:xlink="http://www.w3.org/1999/xlink"
 xmlns:xodm="http://www.corel.com/coreldraw/odm/2003">
 <defs>
  <style type="text/css">
   <![CDATA[
    .fil2 {fill:#FEFEFE}
    .fil1 {fill:#1CA372}
    .fil0 {fill:#CCCCCC}
   ]]>
  </style>
 </defs>
 <g id="Layer_x0020_1">
  <metadata id="CorelCorpID_0Corel-Layer"/>
  <path class="fil0" d="M2.34 0l5.55 0c1.29,0 2.34,1.05 2.34,2.34l0 0.2c0.87,0.29 1.84,0.82 2.52,1.38 0.37,0.3 0.57,0.73 0.57,1.21l0 2.71c0,0.05 -0.01,0.09 -0.03,0.14 -0.34,0.91 -1.28,1.54 -2.23,1.65 -0.21,0.03 -0.41,-0.13 -0.43,-0.34 -0.03,-0.21 0.13,-0.41 0.34,-0.43 0.64,-0.08 1.3,-0.49 1.56,-1.09l0 -1.66 -1.25 0c-0.21,0 -0.39,-0.18 -0.39,-0.39 0,-0.21 0.18,-0.39 0.39,-0.39l1.25 0 0 -0.2c0,-0.25 -0.1,-0.45 -0.29,-0.6 -0.54,-0.45 -1.31,-0.88 -2.03,-1.16l0 3.86c0,1.29 -1.05,2.34 -2.34,2.34l-5.55 0c-1.29,0 -2.34,-1.05 -2.34,-2.34l0 -4.9c0,-1.29 1.05,-2.34 2.34,-2.34z"/>
  <circle class="fil1" cx="3.51" cy="9.13" r="1.74"/>
  <circle class="fil1" cx="9.66" cy="9.13" r="1.74"/>
  <circle class="fil2" cx="3.51" cy="9.13" r="0.91"/>
  <circle class="fil2" cx="9.66" cy="9.13" r="0.91"/>
  <path class="fil1" d="M4.38 5.02l1.77 -1.68c0.16,-0.15 0.4,-0.14 0.55,0.02 0.15,0.16 0.14,0.4 -0.02,0.55l-2.06 1.95c-0.08,0.07 -0.17,0.11 -0.28,0.11 -0.11,-0 -0.2,-0.04 -0.27,-0.12l-0.91 -0.97c-0.15,-0.16 -0.14,-0.4 0.02,-0.55 0.16,-0.15 0.4,-0.14 0.55,0.02l0.64 0.69z"/>
 </g>
</svg>
