<?xml version="1.0" encoding="UTF-8"?>
<!DOCTYPE svg PUBLIC "-//W3C//DTD SVG 1.1//EN" "http://www.w3.org/Graphics/SVG/1.1/DTD/svg11.dtd">
<!-- Creator: CorelDRAW -->
<svg xmlns="http://www.w3.org/2000/svg" xml:space="preserve" width="0.906031in" height="0.906031in" version="1.1" style="shape-rendering:geometricPrecision; text-rendering:geometricPrecision; image-rendering:optimizeQuality; fill-rule:evenodd; clip-rule:evenodd"
viewBox="0 0 27.44 27.44"
 xmlns:xlink="http://www.w3.org/1999/xlink"
 xmlns:xodm="http://www.corel.com/coreldraw/odm/2003">
 <defs>
  <style type="text/css">
   <![CDATA[
    .fil0 {fill:none}
    .fil2 {fill:#1CA372}
    .fil1 {fill:#A3D9C5}
   ]]>
  </style>
 </defs>
 <g id="Layer_x0020_1">
  <metadata id="CorelCorpID_0Corel-Layer"/>
  <rect class="fil0" width="27.44" height="27.44" rx="4.77" ry="4.77"/>
  <path class="fil1" d="M11.65 5.16l4.15 0c1.7,0 3.1,1.39 3.1,3.1l0 2.7 -10.35 0 0 -2.7c0,-1.7 1.39,-3.1 3.1,-3.1zm-0.05 15.71l4.26 0c1.67,0 3.04,-1.37 3.04,-3.04l0 -5.8 -10.35 0 0 5.8c0,1.67 1.37,3.04 3.04,3.04z"/>
  <path class="fil2" d="M14.64 8.72l1.79 0c0.2,0 0.36,0.16 0.36,0.36l0 0c0,0.2 -0.16,0.36 -0.36,0.36l-1.79 0c-0.2,0 -0.36,-0.16 -0.36,-0.36l0 -0c0,-0.2 0.16,-0.36 0.36,-0.36z"/>
  <path class="fil2" d="M14.64 13.43l1.79 0c0.2,0 0.36,0.16 0.36,0.36l0 0c0,0.2 -0.16,0.36 -0.36,0.36l-1.79 0c-0.2,0 -0.36,-0.16 -0.36,-0.36l0 -0c0,-0.2 0.16,-0.36 0.36,-0.36z"/>
 </g>
</svg>
