<?xml version="1.0" encoding="UTF-8"?>
<!DOCTYPE svg PUBLIC "-//W3C//DTD SVG 1.1//EN" "http://www.w3.org/Graphics/SVG/1.1/DTD/svg11.dtd">
<!-- Creator: CorelDRAW -->
<svg xmlns="http://www.w3.org/2000/svg" xml:space="preserve" width="0.266276in" height="0.244213in" version="1.1" style="shape-rendering:geometricPrecision; text-rendering:geometricPrecision; image-rendering:optimizeQuality; fill-rule:evenodd; clip-rule:evenodd"
viewBox="0 0 1.7 1.56"
 xmlns:xlink="http://www.w3.org/1999/xlink"
 xmlns:xodm="http://www.corel.com/coreldraw/odm/2003">
 <defs>
  <style type="text/css">
   <![CDATA[
    .fil0 {fill:#1E1F29;fill-rule:nonzero}
   ]]>
  </style>
 </defs>
 <g id="Layer_x0020_1">
  <metadata id="CorelCorpID_0Corel-Layer"/>
  <path class="fil0" d="M0.85 1.56l-0.03 -0.01c-0.4,-0.18 -0.83,-0.53 -0.82,-0.97 0,-0.26 0.15,-0.47 0.38,-0.55 0.18,-0.06 0.34,-0.01 0.47,0.12 0.13,-0.14 0.29,-0.18 0.47,-0.12 0.23,0.08 0.38,0.29 0.38,0.55 0,0.45 -0.42,0.79 -0.82,0.97l-0.03 0.01zm-0.32 -1.43c-0.04,0 -0.07,0.01 -0.11,0.02 -0.21,0.07 -0.29,0.27 -0.29,0.43 -0,0.38 0.38,0.69 0.72,0.84 0.34,-0.16 0.72,-0.47 0.72,-0.84 0,-0.16 -0.08,-0.36 -0.29,-0.43 -0.15,-0.05 -0.28,-0 -0.38,0.14l-0.05 0.07 -0.05 -0.07c-0.07,-0.11 -0.16,-0.16 -0.27,-0.16l0 0z"/>
 </g>
</svg>
