<?xml version="1.0" encoding="UTF-8"?>
<!DOCTYPE svg PUBLIC "-//W3C//DTD SVG 1.1//EN" "http://www.w3.org/Graphics/SVG/1.1/DTD/svg11.dtd">
<!-- Creator: CorelDRAW -->
<svg xmlns="http://www.w3.org/2000/svg" xml:space="preserve" width="0.906031in" height="0.906031in" version="1.1" style="shape-rendering:geometricPrecision; text-rendering:geometricPrecision; image-rendering:optimizeQuality; fill-rule:evenodd; clip-rule:evenodd"
viewBox="0 0 27.44 27.44"
 xmlns:xlink="http://www.w3.org/1999/xlink"
 xmlns:xodm="http://www.corel.com/coreldraw/odm/2003">
 <defs>
  <style type="text/css">
   <![CDATA[
    .fil0 {fill:none}
    .fil2 {fill:#1CA372}
    .fil1 {fill:#A3D9C5}
   ]]>
  </style>
 </defs>
 <g id="Layer_x0020_1">
  <metadata id="CorelCorpID_0Corel-Layer"/>
  <rect class="fil0" width="27.44" height="27.44" rx="4.77" ry="4.77"/>
  <path class="fil1" d="M10.17 6.62l7.3 0c1.75,0 3.19,1.44 3.19,3.19l0 4.99 -13.68 0 0 -4.99c0,-1.75 1.44,-3.19 3.19,-3.19z"/>
  <path class="fil2" d="M6.98 15.92l13.68 0 0.87 2.62c0.17,0.52 0.17,1.04 -0.14,1.51 -0.3,0.46 -0.78,0.72 -1.33,0.72l-12.4 0c-0.55,0 -1.01,-0.25 -1.32,-0.7 -0.31,-0.45 -0.32,-0.96 -0.16,-1.49l0.8 -2.66z"/>
  <path class="fil1" d="M12.46 17.83l2.8 0c0.28,0 0.51,0.23 0.51,0.51l0 0c0,0.28 -0.23,0.51 -0.51,0.51l-2.8 0c-0.28,0 -0.51,-0.23 -0.51,-0.51l0 0c0,-0.28 0.23,-0.51 0.51,-0.51z"/>
  <path class="fil2" d="M13.81 8.86c0.12,0.08 0.16,0.24 0.08,0.36l-0.95 1.5 1.77 0 0.01 0 0 0 0.01 0 0 0 0.01 0 0 0c0.04,0 0.08,0.02 0.12,0.04 0.12,0.08 0.16,0.24 0.08,0.36l-1.21 1.89c-0.08,0.12 -0.24,0.16 -0.36,0.08 -0.12,-0.08 -0.16,-0.24 -0.08,-0.36l0.95 -1.5 -1.77 -0 -0 0 -0 0 -0 -0 -0 -0 -0.01 -0 -0 -0 -0 -0c-0.13,-0.01 -0.24,-0.12 -0.24,-0.26 0,-0.06 0.02,-0.12 0.06,-0.16l1.19 -1.87c0.08,-0.12 0.24,-0.16 0.36,-0.08z"/>
 </g>
</svg>
