<?xml version="1.0" encoding="UTF-8"?>
<!DOCTYPE svg PUBLIC "-//W3C//DTD SVG 1.1//EN" "http://www.w3.org/Graphics/SVG/1.1/DTD/svg11.dtd">
<!-- Creator: CorelDRAW -->
<svg xmlns="http://www.w3.org/2000/svg" xml:space="preserve" width="0.246201in" height="0.266476in" version="1.1" style="shape-rendering:geometricPrecision; text-rendering:geometricPrecision; image-rendering:optimizeQuality; fill-rule:evenodd; clip-rule:evenodd"
viewBox="0 0 26.75 28.95"
 xmlns:xlink="http://www.w3.org/1999/xlink"
 xmlns:xodm="http://www.corel.com/coreldraw/odm/2003">
 <defs>
  <style type="text/css">
   <![CDATA[
    .fil0 {fill:#1E1F29}
   ]]>
  </style>
 </defs>
 <g id="Layer_x0020_1">
  <metadata id="CorelCorpID_0Corel-Layer"/>
  <g id="_2792917665648">
   <g id="Iconly_x002f_Light-Outline_x002f_Login">
    <g id="Login">
     <path id="Combined-Shape" class="fil0" d="M20.34 0c3.53,0 6.41,2.87 6.41,6.41l0 16.13c0,3.54 -2.88,6.42 -6.42,6.42l-7.07 0c-3.53,0 -6.4,-2.87 -6.4,-6.41l0 -1.36c0,-0.6 0.49,-1.09 1.09,-1.09 0.6,0 1.09,0.49 1.09,1.09l0 1.36c0,2.33 1.9,4.23 4.23,4.23l7.07 0c2.34,0 4.25,-1.91 4.25,-4.25l0 -16.13c0,-2.33 -1.9,-4.23 -4.23,-4.23l-7.07 0c-2.34,0 -4.25,1.91 -4.25,4.25l0 1.35c0,0.6 -0.49,1.09 -1.09,1.09 -0.6,0 -1.09,-0.49 -1.09,-1.09l0 -1.35c0,-3.54 2.88,-6.42 6.42,-6.42l7.07 0zm-5.3 9.49l4.24 4.22c0.03,0.03 0.07,0.07 0.1,0.11l-0.1 -0.11c0.06,0.06 0.11,0.12 0.15,0.19 0.01,0.02 0.02,0.03 0.03,0.05 0.02,0.03 0.03,0.05 0.04,0.08 0.01,0.02 0.02,0.04 0.02,0.06 0.01,0.03 0.02,0.06 0.03,0.08 0.01,0.02 0.01,0.04 0.02,0.07 0.01,0.03 0.01,0.06 0.02,0.08 0,0.01 0,0.03 0,0.04 0.01,0.04 0.01,0.08 0.01,0.11l-0.01 0.11 -0 0.03c-0,0 -0,0 -0,0.01l0.01 -0.15c0,0.08 -0.01,0.16 -0.03,0.24 -0.01,0.02 -0.01,0.05 -0.02,0.07 -0.01,0.03 -0.02,0.06 -0.03,0.09 -0.01,0.02 -0.02,0.04 -0.03,0.06 -0.01,0.03 -0.03,0.06 -0.04,0.08 -0.01,0.02 -0.02,0.03 -0.03,0.05 -0.02,0.03 -0.03,0.05 -0.05,0.08 -0.01,0.02 -0.03,0.03 -0.04,0.05 -0.02,0.02 -0.04,0.04 -0.06,0.06l-4.24 4.22c-0.21,0.21 -0.49,0.32 -0.77,0.32 -0.28,0 -0.56,-0.11 -0.77,-0.32 -0.42,-0.43 -0.42,-1.11 0,-1.53l2.38 -2.37 -14.8 0c-0.6,0 -1.09,-0.49 -1.09,-1.09 0,-0.6 0.49,-1.09 1.09,-1.09l14.8 0 -2.38 -2.37c-0.42,-0.42 -0.43,-1.11 -0,-1.53 0.42,-0.43 1.11,-0.43 1.53,-0z"/>
    </g>
   </g>
  </g>
 </g>
</svg>
