<?xml version="1.0" encoding="UTF-8"?>
<!DOCTYPE svg PUBLIC "-//W3C//DTD SVG 1.1//EN" "http://www.w3.org/Graphics/SVG/1.1/DTD/svg11.dtd">
<!-- Creator: CorelDRAW -->
<svg xmlns="http://www.w3.org/2000/svg" xml:space="preserve" width="0.759516in" height="0.75952in" version="1.1" style="shape-rendering:geometricPrecision; text-rendering:geometricPrecision; image-rendering:optimizeQuality; fill-rule:evenodd; clip-rule:evenodd"
viewBox="0 0 9.24 9.24"
 xmlns:xlink="http://www.w3.org/1999/xlink"
 xmlns:xodm="http://www.corel.com/coreldraw/odm/2003">
 <defs>
  <style type="text/css">
   <![CDATA[
    .fil1 {fill:#1CA372}
    .fil0 {fill:#CCCCCC}
   ]]>
  </style>
 </defs>
 <g id="Layer_x0020_1">
  <metadata id="CorelCorpID_0Corel-Layer"/>
  <path class="fil0" d="M1.03 7.53c-0.64,-0.79 -1.03,-1.81 -1.03,-2.91 0,-1.1 0.38,-2.11 1.02,-2.9 0.03,-0.04 0.08,-0.07 0.14,-0.07 0.06,-0 0.1,0.02 0.14,0.05l1.22 1.22c0.07,0.07 0.07,0.17 0.02,0.24 -0.29,0.41 -0.46,0.91 -0.46,1.45 0,0.54 0.17,1.05 0.46,1.46 0.05,0.08 0.04,0.18 -0.02,0.24l-1.22 1.22c-0.04,0.04 -0.09,0.06 -0.14,0.05 -0.06,-0 -0.1,-0.03 -0.14,-0.07z"/>
  <path class="fil1" d="M7.52 8.22c-0.79,0.64 -1.8,1.02 -2.9,1.02 -1.1,0 -2.11,-0.38 -2.9,-1.02 -0.04,-0.03 -0.07,-0.08 -0.07,-0.14 -0,-0.06 0.02,-0.1 0.05,-0.14l1.22 -1.22c0.07,-0.07 0.17,-0.07 0.24,-0.02 0.41,0.29 0.91,0.46 1.45,0.46 0.54,0 1.04,-0.17 1.45,-0.46 0.08,-0.05 0.18,-0.04 0.24,0.02l1.22 1.22c0.04,0.04 0.06,0.09 0.05,0.14 -0,0.06 -0.03,0.1 -0.07,0.14z"/>
  <path class="fil0" d="M8.22 1.72c0.64,0.79 1.02,1.8 1.02,2.9 0,1.1 -0.39,2.11 -1.03,2.91 -0.03,0.04 -0.08,0.07 -0.14,0.07 -0.06,0 -0.1,-0.02 -0.14,-0.05l-1.22 -1.22c-0.07,-0.07 -0.07,-0.17 -0.02,-0.24 0.29,-0.41 0.46,-0.92 0.46,-1.46 0,-0.54 -0.17,-1.04 -0.46,-1.45 -0.05,-0.08 -0.04,-0.18 0.02,-0.24l1.22 -1.22c0.04,-0.04 0.09,-0.06 0.14,-0.05 0.06,0 0.1,0.03 0.14,0.07z"/>
  <path class="fil1" d="M4.62 0c1.1,0 2.11,0.39 2.91,1.03 0.04,0.03 0.07,0.08 0.07,0.14 0,0.06 -0.02,0.1 -0.05,0.14l-1.22 1.22c-0.07,0.07 -0.17,0.07 -0.24,0.02 -0.41,-0.29 -0.92,-0.46 -1.46,-0.46 -0.54,0 -1.05,0.17 -1.46,0.46 -0.08,0.05 -0.18,0.04 -0.24,-0.02l-1.22 -1.22c-0.04,-0.04 -0.06,-0.09 -0.05,-0.14 0,-0.06 0.03,-0.1 0.07,-0.14 0.79,-0.64 1.81,-1.03 2.91,-1.03z"/>
 </g>
</svg>
