<?xml version="1.0" encoding="UTF-8"?>
<!DOCTYPE svg PUBLIC "-//W3C//DTD SVG 1.1//EN" "http://www.w3.org/Graphics/SVG/1.1/DTD/svg11.dtd">
<!-- Creator: CorelDRAW -->
<svg xmlns="http://www.w3.org/2000/svg" xml:space="preserve" width="0.906031in" height="0.906031in" version="1.1" style="shape-rendering:geometricPrecision; text-rendering:geometricPrecision; image-rendering:optimizeQuality; fill-rule:evenodd; clip-rule:evenodd"
viewBox="0 0 27.44 27.44"
 xmlns:xlink="http://www.w3.org/1999/xlink"
 xmlns:xodm="http://www.corel.com/coreldraw/odm/2003">
 <defs>
  <style type="text/css">
   <![CDATA[
    .fil0 {fill:none}
    .fil2 {fill:#FEFEFE}
    .fil3 {fill:#1CA372}
    .fil1 {fill:#A3D9C5}
   ]]>
  </style>
 </defs>
 <g id="Layer_x0020_1">
  <metadata id="CorelCorpID_0Corel-Layer"/>
  <rect class="fil0" width="27.44" height="27.44" rx="4.77" ry="4.77"/>
  <g id="_1656970183744">
   <path class="fil1" d="M9.5 5.87l8.45 0c1.64,0 2.98,1.34 2.98,2.98l0 9.73c0,1.64 -1.34,2.98 -2.98,2.98l-8.45 0c-1.64,0 -2.98,-1.34 -2.98,-2.98l0 -9.73c0,-1.64 1.34,-2.98 2.98,-2.98z"/>
   <path class="fil2" d="M9.5 7.14l8.45 0c0.95,0 1.72,0.77 1.72,1.72l0 1.68 -11.89 0 0 -1.68c0,-0.95 0.77,-1.72 1.72,-1.72z"/>
   <path class="fil3" d="M10.02 8.58l1.84 0c0.19,0 0.35,0.16 0.35,0.35l0 0c0,0.19 -0.16,0.35 -0.35,0.35l-1.84 0c-0.19,0 -0.35,-0.16 -0.35,-0.35l0 -0c0,-0.19 0.16,-0.35 0.35,-0.35z"/>
   <path class="fil3" d="M15.52 8.51c0.2,0 0.36,0.16 0.36,0.36 0,0.2 -0.16,0.36 -0.36,0.36 -0.2,0 -0.36,-0.16 -0.36,-0.36 0,-0.2 0.16,-0.36 0.36,-0.36z"/>
   <path class="fil3" d="M17.17 8.51c0.2,0 0.36,0.16 0.36,0.36 0,0.2 -0.16,0.36 -0.36,0.36 -0.2,0 -0.36,-0.16 -0.36,-0.36 0,-0.2 0.16,-0.36 0.36,-0.36z"/>
   <path class="fil3" d="M13.69 12.46c1.5,0 2.76,0.99 3.17,2.36 -0.57,0.61 -1.74,1.48 -3.18,0.38 -1.26,-0.96 -2.44,-0.68 -3.17,-0.32 0.39,-1.39 1.67,-2.41 3.19,-2.41z"/>
   <path class="fil3" d="M17 15.85c-0.05,1.79 -1.51,3.22 -3.31,3.22 -1.71,0 -3.11,-1.29 -3.29,-2.96 0.72,-0.38 1.95,-0.73 3.27,0.27 1.58,1.2 2.83,0.06 3.32,-0.54z"/>
  </g>
 </g>
</svg>
