<?xml version="1.0" encoding="UTF-8"?>
<!DOCTYPE svg PUBLIC "-//W3C//DTD SVG 1.1//EN" "http://www.w3.org/Graphics/SVG/1.1/DTD/svg11.dtd">
<!-- Creator: CorelDRAW -->
<svg xmlns="http://www.w3.org/2000/svg" xml:space="preserve" width="0.906031in" height="0.906031in" version="1.1" style="shape-rendering:geometricPrecision; text-rendering:geometricPrecision; image-rendering:optimizeQuality; fill-rule:evenodd; clip-rule:evenodd"
viewBox="0 0 27.44 27.44"
 xmlns:xlink="http://www.w3.org/1999/xlink"
 xmlns:xodm="http://www.corel.com/coreldraw/odm/2003">
 <defs>
  <style type="text/css">
   <![CDATA[
    .fil0 {fill:none}
    .fil2 {fill:#1CA372}
    .fil1 {fill:#A3D9C5}
   ]]>
  </style>
 </defs>
 <g id="Layer_x0020_1">
  <metadata id="CorelCorpID_0Corel-Layer"/>
  <rect class="fil0" width="27.44" height="27.44" rx="4.77" ry="4.77"/>
  <path class="fil1" d="M8.8 6.65l9.6 0c1.7,0 3.1,1.39 3.1,3.1l0 5.57c0,1.7 -1.39,3.1 -3.1,3.1l-9.6 0c-1.7,0 -3.1,-1.39 -3.1,-3.1l0 -5.57c0,-1.7 1.39,-3.1 3.1,-3.1z"/>
  <path class="fil2" d="M13.78 18.54l1.49 1.05 0.87 0.61c0.11,0.08 0.16,0.22 0.12,0.35 -0.04,0.13 -0.16,0.22 -0.3,0.22l-2.36 0 -2.36 0c-0.14,0 -0.25,-0.09 -0.3,-0.22 -0.04,-0.13 0,-0.27 0.12,-0.35l0.87 -0.61 1.49 -1.05c0.11,-0.08 0.25,-0.08 0.36,0z"/>
 </g>
</svg>
