<?xml version="1.0" encoding="UTF-8"?>
<!DOCTYPE svg PUBLIC "-//W3C//DTD SVG 1.1//EN" "http://www.w3.org/Graphics/SVG/1.1/DTD/svg11.dtd">
<!-- Creator: CorelDRAW -->
<svg xmlns="http://www.w3.org/2000/svg" xml:space="preserve" width="0.906031in" height="0.906031in" version="1.1" style="shape-rendering:geometricPrecision; text-rendering:geometricPrecision; image-rendering:optimizeQuality; fill-rule:evenodd; clip-rule:evenodd"
viewBox="0 0 27.44 27.44"
 xmlns:xlink="http://www.w3.org/1999/xlink"
 xmlns:xodm="http://www.corel.com/coreldraw/odm/2003">
 <defs>
  <style type="text/css">
   <![CDATA[
    .fil0 {fill:none}
    .fil2 {fill:#1CA372}
    .fil1 {fill:#A3D9C5}
   ]]>
  </style>
 </defs>
 <g id="Layer_x0020_1">
  <metadata id="CorelCorpID_0Corel-Layer"/>
  <rect class="fil0" width="27.44" height="27.44" rx="4.77" ry="4.77"/>
  <path class="fil1" d="M11.21 5.85l5.01 0c1.7,0 3.1,1.39 3.1,3.1l0 9.54c0,1.7 -1.39,3.1 -3.1,3.1l-5.01 0c-1.7,0 -3.1,-1.39 -3.1,-3.1l0 -9.54c0,-1.7 1.39,-3.1 3.1,-3.1z"/>
  <path class="fil2" d="M13.75 18.49c0.45,0 0.82,0.37 0.82,0.82 0,0.45 -0.37,0.82 -0.82,0.82 -0.45,0 -0.82,-0.37 -0.82,-0.82 0,-0.45 0.37,-0.82 0.82,-0.82z"/>
  <path class="fil2" d="M12.14 7.5l2.99 0c0.19,0 0.35,0.16 0.35,0.35l0 0c0,0.19 -0.16,0.35 -0.35,0.35l-2.99 0c-0.19,0 -0.35,-0.16 -0.35,-0.35l0 0c0,-0.19 0.16,-0.35 0.35,-0.35z"/>
 </g>
</svg>
