<?xml version="1.0" encoding="UTF-8"?>
<!DOCTYPE svg PUBLIC "-//W3C//DTD SVG 1.1//EN" "http://www.w3.org/Graphics/SVG/1.1/DTD/svg11.dtd">
<!-- Creator: CorelDRAW -->
<svg xmlns="http://www.w3.org/2000/svg" xml:space="preserve" width="1.42094in" height="0.358642in" version="1.1" style="shape-rendering:geometricPrecision; text-rendering:geometricPrecision; image-rendering:optimizeQuality; fill-rule:evenodd; clip-rule:evenodd"
viewBox="0 0 557.51 140.71"
 xmlns:xlink="http://www.w3.org/1999/xlink"
 xmlns:xodm="http://www.corel.com/coreldraw/odm/2003">
 <defs>
  <style type="text/css">
   <![CDATA[
    .fil1 {fill:#1BA371}
    .fil2 {fill:#1E1F29}
    .fil0 {fill:#1E1F29;fill-rule:nonzero}
   ]]>
  </style>
 </defs>
 <g id="Layer_x0020_1">
  <metadata id="CorelCorpID_0Corel-Layer"/>
  <g id="_2793544083776">
   <g id="_2218560216624">
    <path class="fil0" d="M33.58 71.08c0,-3.4 2.99,-5.26 7.93,-5.26 6.29,0 9.99,3.4 12.67,8.34l24.21 -13.08c-7.93,-13.39 -21.53,-20.19 -36.88,-20.19 -19.67,0 -37.09,10.4 -37.09,31.01 0,32.65 46.46,27.2 46.46,37.6 0,3.81 -3.4,5.87 -10.2,5.87 -8.34,0 -13.6,-4.02 -16.07,-11.12l-24.62 14.01c7.42,15.35 21.74,22.46 40.69,22.46 20.4,0 39.35,-9.27 39.35,-31.01 0,-34.92 -46.46,-27.81 -46.46,-38.53l0 -0.1zm60.68 66.96l28.33 0 0 -138.04 -28.33 0 0 138.04z"/>
    <path class="fil1" d="M144.84 138.04l0 -100.95 29.26 0 21.22 34.71 21.22 -34.71 29.25 0 0 100.95c-56.66,0 -44.3,0 -100.95,0l0 0z"/>
    <path class="fil0" d="M338.5 42.96l0 8.86c-6.28,-7.21 -15.45,-11.54 -28.12,-11.54 -24.72,0 -45.22,21.74 -45.22,49.86 0,28.12 20.4,49.86 45.22,49.86 12.67,0 21.94,-4.33 28.12,-11.54l0 8.86 28.33 0 0 -94.57 -28.33 0 0 0.21zm-22.46 70.36c-13.08,0 -22.46,-8.86 -22.46,-23.08 0,-14.22 9.48,-23.08 22.46,-23.08 13.08,0 22.46,8.86 22.46,23.08 0,14.22 -9.48,23.08 -22.46,23.08zm100.03 -70.36l-28.33 0 0 94.57 28.33 0 0 -94.57zm99.82 27.2l0 -27.2 -19.47 0 0 -26.47 -28.33 8.55 0 17.93 -15.14 0 0 27.2 15.14 0 0 33.48c0,26.47 10.82,37.6 47.8,33.79l0 -25.75c-12.46,0.72 -19.47,0 -19.47,-8.14l0 -33.48 19.47 0 0 0.1z"/>
    <circle class="fil1" cx="544.01" cy="124.54" r="13.49"/>
    <circle class="fil2" cx="428.23" cy="56.45" r="13.49"/>
    <path class="fil1" d="M195.31 2.78c20.81,0 37.7,16.89 37.7,37.7 0,20.81 -16.89,37.7 -37.7,37.7 -20.81,0 -37.7,-16.89 -37.7,-37.7 0,-20.81 16.89,-37.7 37.7,-37.7zm0 3.4c18.95,0 34.3,15.35 34.3,34.3 0,18.95 -15.35,34.3 -34.3,34.3 -18.95,0 -34.3,-15.35 -34.3,-34.3 0,-18.95 15.35,-34.3 34.3,-34.3z"/>
   </g>
  </g>
 </g>
</svg>
